<svg width="32" height="32" viewBox="0 0 32 32" fill="none" xmlns="http://www.w3.org/2000/svg">
  <!-- Rounded rect background -->
  <rect x="1" y="1" width="30" height="30" rx="6.5" fill="#084475"/>

  <!-- Outer hexagon ring (6 pts, pointy-top, r=9.5, cx=cy=16) -->
  <!-- pts: 0=(16,6.5) 1=(24.23,11.25) 2=(24.23,20.75) 3=(16,25.5) 4=(7.77,20.75) 5=(7.77,11.25) -->
  <line x1="16"    y1="6.5"  x2="24.23" y2="11.25" stroke="white" stroke-width="1.1" stroke-linecap="round"/>
  <line x1="24.23" y1="11.25" x2="24.23" y2="20.75" stroke="white" stroke-width="1.1" stroke-linecap="round"/>
  <line x1="24.23" y1="20.75" x2="16"    y2="25.5"  stroke="white" stroke-width="1.1" stroke-linecap="round"/>
  <line x1="16"    y1="25.5"  x2="7.77"  y2="20.75" stroke="white" stroke-width="1.1" stroke-linecap="round"/>
  <line x1="7.77"  y1="20.75" x2="7.77"  y2="11.25" stroke="white" stroke-width="1.1" stroke-linecap="round"/>
  <line x1="7.77"  y1="11.25" x2="16"    y2="6.5"   stroke="white" stroke-width="1.1" stroke-linecap="round"/>

  <!-- Spokes: center (16,16) → each vertex -->
  <line x1="16" y1="16" x2="16"    y2="6.5"   stroke="white" stroke-width="1.1" stroke-linecap="round"/>
  <line x1="16" y1="16" x2="24.23" y2="11.25" stroke="white" stroke-width="1.1" stroke-linecap="round"/>
  <line x1="16" y1="16" x2="24.23" y2="20.75" stroke="white" stroke-width="1.1" stroke-linecap="round"/>
  <line x1="16" y1="16" x2="16"    y2="25.5"  stroke="white" stroke-width="1.1" stroke-linecap="round"/>
  <line x1="16" y1="16" x2="7.77"  y2="20.75" stroke="white" stroke-width="1.1" stroke-linecap="round"/>
  <line x1="16" y1="16" x2="7.77"  y2="11.25" stroke="white" stroke-width="1.1" stroke-linecap="round"/>

  <!-- Alternate triangle: pts[0]→pts[2]→pts[4]→pts[0] -->
  <line x1="16"    y1="6.5"   x2="24.23" y2="20.75" stroke="white" stroke-width="1.1" stroke-linecap="round"/>
  <line x1="24.23" y1="20.75" x2="7.77"  y2="20.75" stroke="white" stroke-width="1.1" stroke-linecap="round"/>
  <line x1="7.77"  y1="20.75" x2="16"    y2="6.5"   stroke="white" stroke-width="1.1" stroke-linecap="round"/>

  <!-- Nodes at 6 vertices -->
  <circle cx="16"    cy="6.5"  r="1.2" fill="white" stroke="#084475" stroke-width="0.9"/>
  <circle cx="24.23" cy="11.25" r="1.2" fill="white" stroke="#084475" stroke-width="0.9"/>
  <circle cx="24.23" cy="20.75" r="1.2" fill="white" stroke="#084475" stroke-width="0.9"/>
  <circle cx="16"    cy="25.5" r="1.2" fill="white" stroke="#084475" stroke-width="0.9"/>
  <circle cx="7.77"  cy="20.75" r="1.2" fill="white" stroke="#084475" stroke-width="0.9"/>
  <circle cx="7.77"  cy="11.25" r="1.2" fill="white" stroke="#084475" stroke-width="0.9"/>
  <!-- Center node -->
  <circle cx="16" cy="16" r="1.2" fill="white" stroke="#084475" stroke-width="0.9"/>
</svg>
